<?xml version="1.0" encoding="UTF-8"?><svg id="Layer_1" xmlns="http://www.w3.org/2000/svg" xmlns:xlink="http://www.w3.org/1999/xlink" viewBox="0 0 500 500"><defs><style>.cls-1{fill:url(#linear-gradient-5);filter:url(#drop-shadow-4);}.cls-2{fill:url(#linear-gradient-2);filter:url(#drop-shadow-1);}.cls-3{fill:url(#linear-gradient-4);filter:url(#drop-shadow-3);}.cls-4{fill:url(#linear-gradient-3);filter:url(#drop-shadow-2);}.cls-5{fill:url(#linear-gradient);}</style><linearGradient id="linear-gradient" x1="137.57" y1="444.73" x2="373.24" y2="36.53" gradientTransform="translate(0 500) scale(1 -1)" gradientUnits="userSpaceOnUse"><stop offset="0" stop-color="#8d959b"/><stop offset="1" stop-color="#626d77"/></linearGradient><linearGradient id="linear-gradient-2" x1="376.51" y1="418.93" x2="376.51" y2="320.57" gradientTransform="translate(0 500) scale(1 -1)" gradientUnits="userSpaceOnUse"><stop offset="0" stop-color="#fcd23d"/><stop offset="1" stop-color="#f8bd36"/></linearGradient><filter id="drop-shadow-1" filterUnits="userSpaceOnUse"><feOffset dx="0" dy="0"/><feGaussianBlur result="blur" stdDeviation="8"/><feFlood flood-color="#000" flood-opacity=".5"/><feComposite in2="blur" operator="in"/><feComposite in="SourceGraphic"/></filter><linearGradient id="linear-gradient-3" x1="307.35" x2="307.35" xlink:href="#linear-gradient-2"/><filter id="drop-shadow-2" filterUnits="userSpaceOnUse"><feOffset dx="0" dy="0"/><feGaussianBlur result="blur-2" stdDeviation="8"/><feFlood flood-color="#000" flood-opacity=".5"/><feComposite in2="blur-2" operator="in"/><feComposite in="SourceGraphic"/></filter><linearGradient id="linear-gradient-4" x1="238.19" x2="238.19" xlink:href="#linear-gradient-2"/><filter id="drop-shadow-3" filterUnits="userSpaceOnUse"><feOffset dx="0" dy="0"/><feGaussianBlur result="blur-3" stdDeviation="8"/><feFlood flood-color="#000" flood-opacity=".5"/><feComposite in2="blur-3" operator="in"/><feComposite in="SourceGraphic"/></filter><linearGradient id="linear-gradient-5" x1="169.02" x2="169.02" xlink:href="#linear-gradient-2"/><filter id="drop-shadow-4" filterUnits="userSpaceOnUse"><feOffset dx="0" dy="0"/><feGaussianBlur result="blur-4" stdDeviation="8"/><feFlood flood-color="#000" flood-opacity=".5"/><feComposite in2="blur-4" operator="in"/><feComposite in="SourceGraphic"/></filter></defs><path class="cls-5" d="m400.94,55.86H142.33c-11.9,0-21.55,9.65-21.55,21.55v115.22c0,6.06-1.78,11.99-5.11,17.04l-34.69,52.61c-3.03,4.67-3.47,9.12-3.47,12.93v147.36c0,11.9,9.65,21.55,21.55,21.55h301.89c11.9,0,21.55-9.65,21.55-21.55V77.42c-.02-11.9-9.67-21.55-21.56-21.55Z"/><path class="cls-2" d="m388.3,179.43h-23.57c-5.68,0-10.29-4.61-10.29-10.29v-77.78c0-5.68,4.61-10.29,10.29-10.29h23.57c5.68,0,10.29,4.61,10.29,10.29v77.78c0,5.69-4.61,10.29-10.29,10.29Z"/><path class="cls-4" d="m319.14,179.43h-23.57c-5.68,0-10.29-4.61-10.29-10.29v-77.78c0-5.68,4.61-10.29,10.29-10.29h23.57c5.68,0,10.29,4.61,10.29,10.29v77.78c0,5.69-4.61,10.29-10.29,10.29Z"/><path class="cls-3" d="m249.97,179.43h-23.57c-5.68,0-10.29-4.61-10.29-10.29v-77.78c0-5.68,4.61-10.29,10.29-10.29h23.57c5.68,0,10.29,4.61,10.29,10.29v77.78c0,5.69-4.61,10.29-10.29,10.29Z"/><path class="cls-1" d="m180.81,179.43h-23.57c-5.68,0-10.29-4.61-10.29-10.29v-77.78c0-5.68,4.61-10.29,10.29-10.29h23.57c5.68,0,10.29,4.61,10.29,10.29v77.78c0,5.69-4.61,10.29-10.29,10.29Z"/></svg>